{
  "accessors": [
    {
      "bufferView": 2,
      "componentType": 5126,
      "count": 8853,
      "max": [
        0.03899834305047989,
        0.05030706524848938,
        0.03202778473496437
      ],
      "min": [
        -0.03204797953367233,
        -0.05098148435354233,
        -0.03202778100967407
      ],
      "type": "VEC3"
    },
    {
      "bufferView": 2,
      "byteOffset": 106236,
      "componentType": 5126,
      "count": 8853,
      "max": [
        0.9999999403953552,
        1.0,
        1.0
      ],
      "min": [
        -1.0,
        -1.0,
        -1.0
      ],
      "type": "VEC3"
    },
    {
      "bufferView": 1,
      "componentType": 5126,
      "count": 8853,
      "max": [
        1.0000001192092896,
        1.0000001192092896
      ],
      "min": [
        0.0,
        0.01002531498670578
      ],
      "type": "VEC2"
    },
    {
      "bufferView": 0,
      "componentType": 5125,
      "count": 41472,
      "type": "SCALAR"
    },
    {
      "bufferView": 2,
      "byteOffset": 212472,
      "componentType": 5126,
      "count": 7865,
      "max": [
        0.02908332273364067,
        0.03504176437854767,
        0.025776522234082222
      ],
      "min": [
        -0.025780191645026207,
        -0.03548841550946236,
        -0.025776518508791924
      ],
      "type": "VEC3"
    },
    {
      "bufferView": 2,
      "byteOffset": 306852,
      "componentType": 5126,
      "count": 7865,
      "max": [
        1.0,
        1.0,
        1.0
      ],
      "min": [
        -1.0,
        -1.0,
        -1.0
      ],
      "type": "VEC3"
    },
    {
      "bufferView": 1,
      "byteOffset": 70824,
      "componentType": 5126,
      "count": 7865,
      "max": [
        2.060163974761963,
        2.0916249752044678
      ],
      "min": [
        -1.4155164957046509,
        -1.3556991815567017
      ],
      "type": "VEC2"
    },
    {
      "bufferView": 0,
      "byteOffset": 165888,
      "componentType": 5125,
      "count": 41472,
      "type": "SCALAR"
    },
    {
      "bufferView": 2,
      "byteOffset": 401232,
      "componentType": 5126,
      "count": 8749,
      "max": [
        0.04873627424240112,
        0.061346251517534256,
        0.04241924732923508
      ],
      "min": [
        -0.042436808347702026,
        -0.060968998819589615,
        -0.042419254779815674
      ],
      "type": "VEC3"
    },
    {
      "bufferView": 2,
      "byteOffset": 506220,
      "componentType": 5126,
      "count": 8749,
      "max": [
        0.9999991059303284,
        1.0,
        1.0
      ],
      "min": [
        -1.0,
        -1.0,
        -1.0
      ],
      "type": "VEC3"
    },
    {
      "bufferView": 1,
      "byteOffset": 133744,
      "componentType": 5126,
      "count": 8749,
      "max": [
        1.0000001192092896,
        1.0000001192092896
      ],
      "min": [
        0.0,
        0.010056165978312492
      ],
      "type": "VEC2"
    },
    {
      "bufferView": 0,
      "byteOffset": 331776,
      "componentType": 5125,
      "count": 41472,
      "type": "SCALAR"
    },
    {
      "bufferView": 2,
      "byteOffset": 611208,
      "componentType": 5126,
      "count": 9476,
      "max": [
        0.05888509005308151,
        0.07171705365180969,
        0.051972392946481705
      ],
      "min": [
        -0.05198509991168976,
        -0.07145404815673828,
        -0.0519724003970623
      ],
      "type": "VEC3"
    },
    {
      "bufferView": 2,
      "byteOffset": 724920,
      "componentType": 5126,
      "count": 9476,
      "max": [
        0.9999997019767761,
        1.0,
        0.9999997019767761
      ],
      "min": [
        -0.9999996423721313,
        -1.0,
        -0.9999997019767761
      ],
      "type": "VEC3"
    },
    {
      "bufferView": 1,
      "byteOffset": 203736,
      "componentType": 5126,
      "count": 9476,
      "max": [
        1.0000001192092896,
        1.0000001192092896
      ],
      "min": [
        0.0,
        0.010066057555377483
      ],
      "type": "VEC2"
    },
    {
      "bufferView": 0,
      "byteOffset": 497664,
      "componentType": 5125,
      "count": 41472,
      "type": "SCALAR"
    }
  ],
  "asset": {
    "extras": {
      "author": "3dLabWare (https://sketchfab.com/3dlabwaremodels)",
      "license": "CC-BY-4.0 (http://creativecommons.org/licenses/by/4.0/)",
      "source": "https://sketchfab.com/3d-models/beaker-collection-0ec8afce877345f1acd95ceb24b7c6f3",
      "title": "Beaker Collection"
    },
    "generator": "Sketchfab-15.47.0",
    "version": "2.0"
  },
  "bufferViews": [
    {
      "buffer": 0,
      "byteLength": 663552,
      "name": "floatBufferViews",
      "target": 34963
    },
    {
      "buffer": 0,
      "byteLength": 279544,
      "byteOffset": 663552,
      "byteStride": 8,
      "name": "floatBufferViews",
      "target": 34962
    },
    {
      "buffer": 0,
      "byteLength": 838632,
      "byteOffset": 943096,
      "byteStride": 12,
      "name": "floatBufferViews",
      "target": 34962
    }
  ],
  "buffers": [
    {
      "byteLength": 1781728,
      "uri": "scene.bin"
    }
  ],
  "extensionsUsed": [
    "KHR_materials_transmission"
  ],
  "materials": [
    {
      "alphaMode": "BLEND",
      "doubleSided": true,
      "extensions": {
        "KHR_materials_transmission": {
          "transmissionFactor": 1.0
        }
      },
      "name": "material_0",
      "pbrMetallicRoughness": {
        "baseColorFactor": [
          1.0,
          1.0,
          1.0,
          0.25
        ],
        "metallicFactor": 0.0,
        "roughnessFactor": 0.0
      }
    },
    {
      "alphaMode": "BLEND",
      "doubleSided": true,
      "extensions": {
        "KHR_materials_transmission": {
          "transmissionFactor": 1.0
        }
      },
      "name": "Material.002",
      "pbrMetallicRoughness": {
        "baseColorFactor": [
          1.0,
          1.0,
          1.0,
          0.25
        ],
        "metallicFactor": 0.0,
        "roughnessFactor": 0.1
      }
    }
  ],
  "meshes": [
    {
      "name": "Object_0",
      "primitives": [
        {
          "attributes": {
            "NORMAL": 1,
            "POSITION": 0,
            "TEXCOORD_0": 2
          },
          "indices": 3,
          "material": 0,
          "mode": 4
        }
      ]
    },
    {
      "name": "Object_1",
      "primitives": [
        {
          "attributes": {
            "NORMAL": 5,
            "POSITION": 4,
            "TEXCOORD_0": 6
          },
          "indices": 7,
          "material": 1,
          "mode": 4
        }
      ]
    },
    {
      "name": "Object_2",
      "primitives": [
        {
          "attributes": {
            "NORMAL": 9,
            "POSITION": 8,
            "TEXCOORD_0": 10
          },
          "indices": 11,
          "material": 0,
          "mode": 4
        }
      ]
    },
    {
      "name": "Object_3",
      "primitives": [
        {
          "attributes": {
            "NORMAL": 13,
            "POSITION": 12,
            "TEXCOORD_0": 14
          },
          "indices": 15,
          "material": 0,
          "mode": 4
        }
      ]
    }
  ],
  "nodes": [
    {
      "children": [
        1
      ],
      "matrix": [
        1.0,
        0.0,
        0.0,
        0.0,
        0.0,
        2.220446049250313e-16,
        -1.0,
        0.0,
        0.0,
        1.0,
        2.220446049250313e-16,
        0.0,
        0.0,
        0.0,
        0.0,
        1.0
      ],
      "name": "Sketchfab_model"
    },
    {
      "children": [
        2
      ],
      "name": "root"
    },
    {
      "children": [
        3,
        5,
        7,
        9
      ],
      "matrix": [
        1.0,
        0.0,
        0.0,
        0.0,
        0.0,
        2.220446049250313e-16,
        1.0,
        0.0,
        0.0,
        -1.0,
        2.220446049250313e-16,
        0.0,
        0.0,
        0.0,
        0.0,
        1.0
      ],
      "name": "GLTF_SceneRootNode"
    },
    {
      "children": [
        4
      ],
      "name": "250 mL Beaker_2"
    },
    {
      "mesh": 0,
      "name": "Object_4"
    },
    {
      "children": [
        6
      ],
      "matrix": [
        1.0,
        0.0,
        0.0,
        0.0,
        0.0,
        1.0,
        0.0,
        0.0,
        0.0,
        0.0,
        1.0,
        0.0,
        0.0,
        0.0,
        0.09637697786092758,
        1.0
      ],
      "name": "100 mL Beaker_3"
    },
    {
      "mesh": 1,
      "name": "Object_6"
    },
    {
      "children": [
        8
      ],
      "matrix": [
        1.0,
        0.0,
        0.0,
        0.0,
        0.0,
        1.0,
        0.0,
        0.0,
        0.0,
        0.0,
        1.0,
        0.0,
        0.0,
        0.0,
        -0.10999999940395355,
        1.0
      ],
      "name": "500 mL Beaker_4"
    },
    {
      "mesh": 2,
      "name": "Object_8"
    },
    {
      "children": [
        10
      ],
      "matrix": [
        1.0,
        0.0,
        0.0,
        0.0,
        0.0,
        1.0,
        0.0,
        0.0,
        0.0,
        0.0,
        1.0,
        0.0,
        0.0,
        0.0,
        -0.22999998927116394,
        1.0
      ],
      "name": "1000 mL Beaker_5"
    },
    {
      "mesh": 3,
      "name": "Object_10"
    }
  ],
  "scene": 0,
  "scenes": [
    {
      "name": "Sketchfab_Scene",
      "nodes": [
        0
      ]
    }
  ]
}
