{
  "accessors": [
    {
      "bufferView": 2,
      "componentType": 5126,
      "count": 3640,
      "max": [
        0.6027658581733704,
        7.250537395477295,
        0.6027658581733704
      ],
      "min": [
        -0.6027657985687256,
        -1.1959189176559448,
        -0.6027657985687256
      ],
      "type": "VEC3"
    },
    {
      "bufferView": 2,
      "byteOffset": 43680,
      "componentType": 5126,
      "count": 3640,
      "max": [
        0.9999908208847046,
        0.9985318779945374,
        0.9999908208847046
      ],
      "min": [
        -0.9999908208847046,
        -0.9965421557426453,
        -0.9999908208847046
      ],
      "type": "VEC3"
    },
    {
      "bufferView": 1,
      "componentType": 5126,
      "count": 3640,
      "max": [
        0.0,
        1.0
      ],
      "min": [
        0.0,
        1.0
      ],
      "type": "VEC2"
    },
    {
      "bufferView": 1,
      "byteOffset": 29120,
      "componentType": 5126,
      "count": 3640,
      "max": [
        1.072765827178955,
        1.7159769535064697
      ],
      "min": [
        -0.07276582717895508,
        -6.708583831787109
      ],
      "type": "VEC2"
    },
    {
      "bufferView": 0,
      "componentType": 5125,
      "count": 17664,
      "type": "SCALAR"
    },
    {
      "bufferView": 2,
      "byteOffset": 87360,
      "componentType": 5126,
      "count": 3806,
      "max": [
        1.0206764936447144,
        1.409761905670166,
        1.0206764936447144
      ],
      "min": [
        -1.0206761360168457,
        -1.760785460472107,
        -1.0206764936447144
      ],
      "type": "VEC3"
    },
    {
      "bufferView": 2,
      "byteOffset": 133032,
      "componentType": 5126,
      "count": 3806,
      "max": [
        0.9999977350234985,
        1.0,
        0.9999978542327881
      ],
      "min": [
        -0.9999977946281433,
        -1.0,
        -0.9999977946281433
      ],
      "type": "VEC3"
    },
    {
      "bufferView": 3,
      "componentType": 5126,
      "count": 3806,
      "max": [
        1.0,
        0.9999978542327881,
        1.0,
        1.0
      ],
      "min": [
        -1.0,
        -0.9999977946281433,
        -1.0,
        -1.0
      ],
      "type": "VEC4"
    },
    {
      "bufferView": 1,
      "byteOffset": 58240,
      "componentType": 5126,
      "count": 3806,
      "max": [
        2.1454734802246094,
        2.1454739570617676
      ],
      "min": [
        -1.1454733610153198,
        -3.2111024856567383
      ],
      "type": "VEC2"
    },
    {
      "bufferView": 1,
      "byteOffset": 88688,
      "componentType": 5126,
      "count": 3806,
      "max": [
        1.0,
        0.5000001192092896
      ],
      "min": [
        0.0,
        0.0
      ],
      "type": "VEC2"
    },
    {
      "bufferView": 1,
      "byteOffset": 119136,
      "componentType": 5126,
      "count": 3806,
      "max": [
        2.1454734802246094,
        2.1454739570617676
      ],
      "min": [
        -1.1454733610153198,
        -3.2111024856567383
      ],
      "type": "VEC2"
    },
    {
      "bufferView": 1,
      "byteOffset": 149584,
      "componentType": 5126,
      "count": 3806,
      "max": [
        2.1454734802246094,
        2.1454739570617676
      ],
      "min": [
        -1.1454733610153198,
        -3.2111024856567383
      ],
      "type": "VEC2"
    },
    {
      "bufferView": 1,
      "byteOffset": 180032,
      "componentType": 5126,
      "count": 3806,
      "max": [
        2.1454734802246094,
        2.1454739570617676
      ],
      "min": [
        -1.1454733610153198,
        -3.2111024856567383
      ],
      "type": "VEC2"
    },
    {
      "bufferView": 0,
      "byteOffset": 70656,
      "componentType": 5125,
      "count": 14568,
      "type": "SCALAR"
    },
    {
      "bufferView": 2,
      "byteOffset": 178704,
      "componentType": 5126,
      "count": 4,
      "max": [
        0.019946837797760963,
        -0.3665301203727722,
        0.5000000596046448
      ],
      "min": [
        -0.01994684711098671,
        -0.3665301501750946,
        -0.4999999403953552
      ],
      "type": "VEC3"
    },
    {
      "bufferView": 2,
      "byteOffset": 178752,
      "componentType": 5126,
      "count": 4,
      "max": [
        0.0,
        1.0,
        -2.9802322387695313e-08
      ],
      "min": [
        0.0,
        1.0,
        -2.9802322387695313e-08
      ],
      "type": "VEC3"
    },
    {
      "bufferView": 1,
      "byteOffset": 210480,
      "componentType": 5126,
      "count": 4,
      "max": [
        1.0,
        1.0
      ],
      "min": [
        0.0,
        0.0
      ],
      "type": "VEC2"
    },
    {
      "bufferView": 0,
      "byteOffset": 128928,
      "componentType": 5125,
      "count": 6,
      "type": "SCALAR"
    }
  ],
  "asset": {
    "extras": {
      "author": "itschemistry2 (https://sketchfab.com/itschemistry2)",
      "license": "CC-BY-4.0 (http://creativecommons.org/licenses/by/4.0/)",
      "source": "https://sketchfab.com/3d-models/burette-8164ac62b35c49d191f280d2335e50a7",
      "title": "Burette"
    },
    "generator": "Sketchfab-16.29.0",
    "version": "2.0"
  },
  "bufferViews": [
    {
      "buffer": 0,
      "byteLength": 128952,
      "name": "floatBufferViews",
      "target": 34963
    },
    {
      "buffer": 0,
      "byteLength": 210512,
      "byteOffset": 128952,
      "byteStride": 8,
      "name": "floatBufferViews",
      "target": 34962
    },
    {
      "buffer": 0,
      "byteLength": 178800,
      "byteOffset": 339464,
      "byteStride": 12,
      "name": "floatBufferViews",
      "target": 34962
    },
    {
      "buffer": 0,
      "byteLength": 60896,
      "byteOffset": 518264,
      "byteStride": 16,
      "name": "floatBufferViews",
      "target": 34962
    }
  ],
  "buffers": [
    {
      "byteLength": 579160,
      "uri": "scene.bin"
    }
  ],
  "extensionsUsed": [
    "KHR_materials_transmission",
    "KHR_texture_transform"
  ],
  "images": [
    {
      "uri": "textures/Plastic_Blue_20.001_baseColor.jpeg"
    },
    {
      "uri": "textures/Plastic_Blue_20.001_metallicRoughness.png"
    },
    {
      "uri": "textures/Plastic_Blue_20.001_normal.jpeg"
    },
    {
      "uri": "textures/0-Photoroom-removebg-preview_baseColor.png"
    }
  ],
  "materials": [
    {
      "alphaMode": "BLEND",
      "doubleSided": true,
      "extensions": {
        "KHR_materials_transmission": {
          "transmissionFactor": 1.0
        }
      },
      "name": "Material",
      "pbrMetallicRoughness": {
        "baseColorFactor": [
          0.8,
          0.8,
          0.8,
          0.25
        ],
        "metallicFactor": 0.0,
        "roughnessFactor": 0.0
      }
    },
    {
      "doubleSided": true,
      "name": "Plastic_Blue_20.001",
      "normalTexture": {
        "extensions": {
          "KHR_texture_transform": {
            "offset": [
              0,
              -29
            ],
            "scale": [
              30,
              30
            ]
          }
        },
        "index": 2
      },
      "pbrMetallicRoughness": {
        "baseColorTexture": {
          "index": 0
        },
        "metallicFactor": 0.782609,
        "metallicRoughnessTexture": {
          "index": 1
        }
      }
    },
    {
      "alphaMode": "BLEND",
      "doubleSided": true,
      "name": "0-Photoroom-removebg-preview",
      "pbrMetallicRoughness": {
        "baseColorTexture": {
          "index": 3
        },
        "metallicFactor": 0.0,
        "roughnessFactor": 0.5
      }
    }
  ],
  "meshes": [
    {
      "name": "Object_0",
      "primitives": [
        {
          "attributes": {
            "NORMAL": 1,
            "POSITION": 0,
            "TEXCOORD_0": 2,
            "TEXCOORD_1": 3
          },
          "indices": 4,
          "material": 0,
          "mode": 4
        }
      ]
    },
    {
      "name": "Object_1",
      "primitives": [
        {
          "attributes": {
            "NORMAL": 6,
            "POSITION": 5,
            "TANGENT": 7,
            "TEXCOORD_0": 8,
            "TEXCOORD_1": 9,
            "TEXCOORD_2": 10,
            "TEXCOORD_3": 11,
            "TEXCOORD_4": 12
          },
          "indices": 13,
          "material": 1,
          "mode": 4
        }
      ]
    },
    {
      "name": "Object_2",
      "primitives": [
        {
          "attributes": {
            "NORMAL": 15,
            "POSITION": 14,
            "TEXCOORD_0": 16
          },
          "indices": 17,
          "material": 2,
          "mode": 4
        }
      ]
    }
  ],
  "nodes": [
    {
      "children": [
        1
      ],
      "matrix": [
        1.0,
        0.0,
        0.0,
        0.0,
        0.0,
        2.220446049250313e-16,
        -1.0,
        0.0,
        0.0,
        1.0,
        2.220446049250313e-16,
        0.0,
        0.0,
        0.0,
        0.0,
        1.0
      ],
      "name": "Sketchfab_model"
    },
    {
      "children": [
        2
      ],
      "name": "root"
    },
    {
      "children": [
        3,
        5,
        7
      ],
      "matrix": [
        1.0,
        0.0,
        0.0,
        0.0,
        0.0,
        2.220446049250313e-16,
        1.0,
        0.0,
        0.0,
        -1.0,
        2.220446049250313e-16,
        0.0,
        0.0,
        0.0,
        0.0,
        1.0
      ],
      "name": "GLTF_SceneRootNode"
    },
    {
      "children": [
        4
      ],
      "name": "Circle_0"
    },
    {
      "mesh": 0,
      "name": "Object_4"
    },
    {
      "children": [
        6
      ],
      "matrix": [
        7.683902997590596e-08,
        0.22789078950880662,
        0.0,
        0.0,
        -0.44122496247289056,
        1.4876993576900245e-07,
        0.0,
        0.0,
        0.0,
        0.0,
        0.29816845059394836,
        0.0,
        0.0,
        -0.5500794053077698,
        0.0,
        1.0
      ],
      "name": "Cylinder_1"
    },
    {
      "mesh": 1,
      "name": "Object_6"
    },
    {
      "children": [
        8
      ],
      "matrix": [
        16.189590454101563,
        0.0,
        0.0,
        0.0,
        0.0,
        0.0,
        8.485641479492188,
        0.0,
        0.0,
        -6.050346374511719,
        0.0,
        0.0,
        0.0,
        3.213888168334961,
        3.582371473312378,
        1.0
      ],
      "name": "0-Photoroom-removebg-preview_2"
    },
    {
      "mesh": 2,
      "name": "Object_8"
    }
  ],
  "samplers": [
    {
      "magFilter": 9729,
      "minFilter": 9987,
      "wrapS": 10497,
      "wrapT": 10497
    },
    {
      "magFilter": 9729,
      "minFilter": 9987,
      "wrapS": 33071,
      "wrapT": 33071
    }
  ],
  "scene": 0,
  "scenes": [
    {
      "name": "Sketchfab_Scene",
      "nodes": [
        0
      ]
    }
  ],
  "textures": [
    {
      "sampler": 0,
      "source": 0
    },
    {
      "sampler": 0,
      "source": 1
    },
    {
      "sampler": 0,
      "source": 2
    },
    {
      "sampler": 1,
      "source": 3
    }
  ]
}
