{
  "accessors": [
    {
      "bufferView": 2,
      "componentType": 5126,
      "count": 140,
      "max": [
        1.3652578592300415,
        1.3652578592300415,
        1.3652578592300415
      ],
      "min": [
        -1.3652578592300415,
        -2.945028066635132,
        -1.3652578592300415
      ],
      "type": "VEC3"
    },
    {
      "bufferView": 2,
      "byteOffset": 1680,
      "componentType": 5126,
      "count": 140,
      "max": [
        1.0,
        1.0,
        1.0
      ],
      "min": [
        -1.0,
        -1.0,
        -1.0
      ],
      "type": "VEC3"
    },
    {
      "bufferView": 3,
      "componentType": 5126,
      "count": 140,
      "max": [
        0.897887110710144,
        0.9994618892669678,
        0.9926662445068359,
        1.0
      ],
      "min": [
        -0.9958794116973877,
        -0.9994701743125916,
        -0.9998733997344971,
        1.0
      ],
      "type": "VEC4"
    },
    {
      "bufferView": 1,
      "componentType": 5126,
      "count": 140,
      "max": [
        0.9968879222869873,
        0.9948170185089111
      ],
      "min": [
        0.22925615310668945,
        0.04439699649810791
      ],
      "type": "VEC2"
    },
    {
      "bufferView": 1,
      "byteOffset": 1120,
      "componentType": 5126,
      "count": 140,
      "max": [
        0.9700633883476257,
        0.8879497051239014
      ],
      "min": [
        0.3942122757434845,
        0.007874016650021076
      ],
      "type": "VEC2"
    },
    {
      "bufferView": 0,
      "componentType": 5125,
      "count": 648,
      "type": "SCALAR"
    },
    {
      "bufferView": 2,
      "byteOffset": 3360,
      "componentType": 5126,
      "count": 83,
      "max": [
        0.4053802490234375,
        -2.945028066635132,
        0.4053802192211151
      ],
      "min": [
        -0.4053801894187927,
        -16.919313430786133,
        -0.4053801894187927
      ],
      "type": "VEC3"
    },
    {
      "bufferView": 2,
      "byteOffset": 4356,
      "componentType": 5126,
      "count": 83,
      "max": [
        0.9999986290931702,
        1.0,
        0.9999986290931702
      ],
      "min": [
        -0.9999986290931702,
        -1.0,
        -0.9999986290931702
      ],
      "type": "VEC3"
    },
    {
      "bufferView": 1,
      "byteOffset": 2240,
      "componentType": 5126,
      "count": 83,
      "max": [
        0.421907901763916,
        0.990234375
      ],
      "min": [
        0.004530668258666992,
        0.009765625
      ],
      "type": "VEC2"
    },
    {
      "bufferView": 1,
      "byteOffset": 2904,
      "componentType": 5126,
      "count": 83,
      "max": [
        0.9828070402145386,
        0.9921259880065918
      ],
      "min": [
        0.00780005706474185,
        0.008047009818255901
      ],
      "type": "VEC2"
    },
    {
      "bufferView": 0,
      "byteOffset": 2592,
      "componentType": 5125,
      "count": 288,
      "type": "SCALAR"
    },
    {
      "bufferView": 2,
      "byteOffset": 5352,
      "componentType": 5126,
      "count": 140,
      "max": [
        1.3652578592300415,
        1.3652578592300415,
        1.3652578592300415
      ],
      "min": [
        -1.3652578592300415,
        -2.945028066635132,
        -1.3652578592300415
      ],
      "type": "VEC3"
    },
    {
      "bufferView": 2,
      "byteOffset": 7032,
      "componentType": 5126,
      "count": 140,
      "max": [
        1.0,
        1.0,
        1.0
      ],
      "min": [
        -1.0,
        -1.0,
        -1.0
      ],
      "type": "VEC3"
    },
    {
      "bufferView": 3,
      "byteOffset": 2240,
      "componentType": 5126,
      "count": 140,
      "max": [
        0.897887110710144,
        0.9994618892669678,
        0.9926662445068359,
        1.0
      ],
      "min": [
        -0.9958794116973877,
        -0.9994701743125916,
        -0.9998733997344971,
        1.0
      ],
      "type": "VEC4"
    },
    {
      "bufferView": 1,
      "byteOffset": 3568,
      "componentType": 5126,
      "count": 140,
      "max": [
        0.9968879222869873,
        0.9948170185089111
      ],
      "min": [
        0.22925615310668945,
        0.04439699649810791
      ],
      "type": "VEC2"
    },
    {
      "bufferView": 1,
      "byteOffset": 4688,
      "componentType": 5126,
      "count": 140,
      "max": [
        0.9700633883476257,
        0.8879497051239014
      ],
      "min": [
        0.3942122757434845,
        0.007874016650021076
      ],
      "type": "VEC2"
    },
    {
      "bufferView": 0,
      "byteOffset": 3744,
      "componentType": 5125,
      "count": 648,
      "type": "SCALAR"
    },
    {
      "bufferView": 2,
      "byteOffset": 8712,
      "componentType": 5126,
      "count": 83,
      "max": [
        0.4053802490234375,
        -2.945028066635132,
        0.4053802192211151
      ],
      "min": [
        -0.4053801894187927,
        -16.919313430786133,
        -0.4053801894187927
      ],
      "type": "VEC3"
    },
    {
      "bufferView": 2,
      "byteOffset": 9708,
      "componentType": 5126,
      "count": 83,
      "max": [
        0.9999986290931702,
        1.0,
        0.9999986290931702
      ],
      "min": [
        -0.9999986290931702,
        -1.0,
        -0.9999986290931702
      ],
      "type": "VEC3"
    },
    {
      "bufferView": 1,
      "byteOffset": 5808,
      "componentType": 5126,
      "count": 83,
      "max": [
        0.421907901763916,
        0.990234375
      ],
      "min": [
        0.004530668258666992,
        0.009765625
      ],
      "type": "VEC2"
    },
    {
      "bufferView": 1,
      "byteOffset": 6472,
      "componentType": 5126,
      "count": 83,
      "max": [
        0.9828070402145386,
        0.9921259880065918
      ],
      "min": [
        0.00780005706474185,
        0.008047009818255901
      ],
      "type": "VEC2"
    },
    {
      "bufferView": 0,
      "byteOffset": 6336,
      "componentType": 5125,
      "count": 288,
      "type": "SCALAR"
    },
    {
      "bufferView": 2,
      "byteOffset": 10704,
      "componentType": 5126,
      "count": 140,
      "max": [
        1.3652578592300415,
        1.3652578592300415,
        1.3652578592300415
      ],
      "min": [
        -1.3652578592300415,
        -2.945028066635132,
        -1.3652578592300415
      ],
      "type": "VEC3"
    },
    {
      "bufferView": 2,
      "byteOffset": 12384,
      "componentType": 5126,
      "count": 140,
      "max": [
        1.0,
        1.0,
        1.0
      ],
      "min": [
        -1.0,
        -1.0,
        -1.0
      ],
      "type": "VEC3"
    },
    {
      "bufferView": 3,
      "byteOffset": 4480,
      "componentType": 5126,
      "count": 140,
      "max": [
        0.897887110710144,
        0.9994618892669678,
        0.9926662445068359,
        1.0
      ],
      "min": [
        -0.9958794116973877,
        -0.9994701743125916,
        -0.9998733997344971,
        1.0
      ],
      "type": "VEC4"
    },
    {
      "bufferView": 1,
      "byteOffset": 7136,
      "componentType": 5126,
      "count": 140,
      "max": [
        0.9968879222869873,
        0.9948170185089111
      ],
      "min": [
        0.22925615310668945,
        0.04439699649810791
      ],
      "type": "VEC2"
    },
    {
      "bufferView": 1,
      "byteOffset": 8256,
      "componentType": 5126,
      "count": 140,
      "max": [
        0.9700633883476257,
        0.8879497051239014
      ],
      "min": [
        0.3942122757434845,
        0.007874016650021076
      ],
      "type": "VEC2"
    },
    {
      "bufferView": 0,
      "byteOffset": 7488,
      "componentType": 5125,
      "count": 648,
      "type": "SCALAR"
    },
    {
      "bufferView": 2,
      "byteOffset": 14064,
      "componentType": 5126,
      "count": 83,
      "max": [
        0.4053802490234375,
        -2.945028066635132,
        0.4053802192211151
      ],
      "min": [
        -0.4053801894187927,
        -16.919313430786133,
        -0.4053801894187927
      ],
      "type": "VEC3"
    },
    {
      "bufferView": 2,
      "byteOffset": 15060,
      "componentType": 5126,
      "count": 83,
      "max": [
        0.9999986290931702,
        1.0,
        0.9999986290931702
      ],
      "min": [
        -0.9999986290931702,
        -1.0,
        -0.9999986290931702
      ],
      "type": "VEC3"
    },
    {
      "bufferView": 1,
      "byteOffset": 9376,
      "componentType": 5126,
      "count": 83,
      "max": [
        0.421907901763916,
        0.990234375
      ],
      "min": [
        0.004530668258666992,
        0.009765625
      ],
      "type": "VEC2"
    },
    {
      "bufferView": 1,
      "byteOffset": 10040,
      "componentType": 5126,
      "count": 83,
      "max": [
        0.9828070402145386,
        0.9921259880065918
      ],
      "min": [
        0.00780005706474185,
        0.008047009818255901
      ],
      "type": "VEC2"
    },
    {
      "bufferView": 0,
      "byteOffset": 10080,
      "componentType": 5125,
      "count": 288,
      "type": "SCALAR"
    }
  ],
  "asset": {
    "extras": {
      "author": "Naked Singularity (https://sketchfab.com/nakedsingularity)",
      "license": "CC-BY-4.0 (http://creativecommons.org/licenses/by/4.0/)",
      "source": "https://sketchfab.com/3d-models/free-pipette-laboratory-low-poly-6c8ede9361f047df88dca68029249e22",
      "title": "FREE Pipette | Laboratory | Low poly"
    },
    "generator": "Sketchfab-14.25.0",
    "version": "2.0"
  },
  "bufferViews": [
    {
      "buffer": 0,
      "byteLength": 11232,
      "name": "floatBufferViews",
      "target": 34963
    },
    {
      "buffer": 0,
      "byteLength": 10704,
      "byteOffset": 11232,
      "byteStride": 8,
      "name": "floatBufferViews",
      "target": 34962
    },
    {
      "buffer": 0,
      "byteLength": 16056,
      "byteOffset": 21936,
      "byteStride": 12,
      "name": "floatBufferViews",
      "target": 34962
    },
    {
      "buffer": 0,
      "byteLength": 6720,
      "byteOffset": 37992,
      "byteStride": 16,
      "name": "floatBufferViews",
      "target": 34962
    }
  ],
  "buffers": [
    {
      "byteLength": 44712,
      "uri": "scene.bin"
    }
  ],
  "extensionsUsed": [
    "KHR_materials_transmission"
  ],
  "images": [
    {
      "uri": "textures/plastic_baseColor.png"
    },
    {
      "uri": "textures/plastic_normal.png"
    },
    {
      "uri": "textures/glass_baseColor.png"
    },
    {
      "uri": "textures/glass_transmission.png"
    },
    {
      "uri": "textures/plastic_red_baseColor.jpeg"
    }
  ],
  "materials": [
    {
      "doubleSided": true,
      "name": "plastic",
      "normalTexture": {
        "index": 1
      },
      "pbrMetallicRoughness": {
        "baseColorTexture": {
          "index": 0
        },
        "metallicFactor": 0.0,
        "roughnessFactor": 0.6
      }
    },
    {
      "alphaMode": "BLEND",
      "doubleSided": true,
      "extensions": {
        "KHR_materials_transmission": {
          "transmissionFactor": 1.0,
          "transmissionTexture": {
            "index": 3
          }
        }
      },
      "name": "glass",
      "pbrMetallicRoughness": {
        "baseColorTexture": {
          "index": 2
        },
        "metallicFactor": 0.0,
        "roughnessFactor": 0.0
      }
    },
    {
      "doubleSided": true,
      "name": "plastic_red",
      "normalTexture": {
        "index": 1
      },
      "pbrMetallicRoughness": {
        "baseColorTexture": {
          "index": 4
        },
        "metallicFactor": 0.0,
        "roughnessFactor": 0.6
      }
    }
  ],
  "meshes": [
    {
      "name": "Blue_piette_NakedSingularity_plastic_0",
      "primitives": [
        {
          "attributes": {
            "NORMAL": 1,
            "POSITION": 0,
            "TANGENT": 2,
            "TEXCOORD_0": 3,
            "TEXCOORD_1": 4
          },
          "indices": 5,
          "material": 0,
          "mode": 4
        }
      ]
    },
    {
      "name": "Blue_piette_NakedSingularity_glass_0",
      "primitives": [
        {
          "attributes": {
            "NORMAL": 7,
            "POSITION": 6,
            "TEXCOORD_0": 8,
            "TEXCOORD_1": 9
          },
          "indices": 10,
          "material": 1,
          "mode": 4
        }
      ]
    },
    {
      "name": "Red_piette_NakedSingularity_plastic_red_0",
      "primitives": [
        {
          "attributes": {
            "NORMAL": 12,
            "POSITION": 11,
            "TANGENT": 13,
            "TEXCOORD_0": 14,
            "TEXCOORD_1": 15
          },
          "indices": 16,
          "material": 2,
          "mode": 4
        }
      ]
    },
    {
      "name": "Red_piette_NakedSingularity_glass_0",
      "primitives": [
        {
          "attributes": {
            "NORMAL": 18,
            "POSITION": 17,
            "TEXCOORD_0": 19,
            "TEXCOORD_1": 20
          },
          "indices": 21,
          "material": 1,
          "mode": 4
        }
      ]
    },
    {
      "name": "Red_piette_NakedSingularity1_plastic_red_0",
      "primitives": [
        {
          "attributes": {
            "NORMAL": 23,
            "POSITION": 22,
            "TANGENT": 24,
            "TEXCOORD_0": 25,
            "TEXCOORD_1": 26
          },
          "indices": 27,
          "material": 2,
          "mode": 4
        }
      ]
    },
    {
      "name": "Red_piette_NakedSingularity1_glass_0",
      "primitives": [
        {
          "attributes": {
            "NORMAL": 29,
            "POSITION": 28,
            "TEXCOORD_0": 30,
            "TEXCOORD_1": 31
          },
          "indices": 32,
          "material": 1,
          "mode": 4
        }
      ]
    }
  ],
  "nodes": [
    {
      "children": [
        1
      ],
      "matrix": [
        1.0,
        0.0,
        0.0,
        0.0,
        0.0,
        2.220446049250313e-16,
        -1.0,
        0.0,
        0.0,
        1.0,
        2.220446049250313e-16,
        0.0,
        0.0,
        0.0,
        0.0,
        1.0
      ],
      "name": "Sketchfab_model"
    },
    {
      "children": [
        2
      ],
      "matrix": [
        0.009999999776482582,
        0.0,
        0.0,
        0.0,
        0.0,
        0.0,
        0.009999999776482582,
        0.0,
        0.0,
        -0.009999999776482582,
        0.0,
        0.0,
        0.0,
        0.0,
        0.0,
        1.0
      ],
      "name": "SF_Pipette_NakedSingularity.fbx"
    },
    {
      "children": [
        3,
        6,
        9
      ],
      "name": "RootNode"
    },
    {
      "children": [
        4,
        5
      ],
      "matrix": [
        -0.5706265060541167,
        6.988159241478117e-17,
        0.8212097116988273,
        0.0,
        2.230338644008042e-16,
        1.0,
        6.988159241478117e-17,
        0.0,
        -0.8212097116988273,
        2.230338644008042e-16,
        -0.5706265060541167,
        0.0,
        -3.55379056930542,
        17.3714542388916,
        0.0,
        1.0
      ],
      "name": "Blue_piette_NakedSingularity"
    },
    {
      "mesh": 0,
      "name": "Blue_piette_NakedSingularity_plastic_0"
    },
    {
      "mesh": 1,
      "name": "Blue_piette_NakedSingularity_glass_0"
    },
    {
      "children": [
        7,
        8
      ],
      "matrix": [
        -0.495743892415772,
        6.071111710438248e-17,
        0.8684687634753825,
        0.0,
        2.2882142904969405e-16,
        1.0,
        6.071111710438248e-17,
        0.0,
        -0.8684687634753825,
        2.2882142904969405e-16,
        -0.495743892415772,
        0.0,
        1.822769045829773,
        17.3714542388916,
        -1.7884206771850586,
        1.0
      ],
      "name": "Red_piette_NakedSingularity"
    },
    {
      "mesh": 2,
      "name": "Red_piette_NakedSingularity_plastic_red_0"
    },
    {
      "mesh": 3,
      "name": "Red_piette_NakedSingularity_glass_0"
    },
    {
      "children": [
        10,
        11
      ],
      "matrix": [
        0.7366463946398847,
        -0.003853612175352017,
        0.6762671357808696,
        0.0,
        -0.6749800085947066,
        0.057739152210874556,
        0.7355733670406095,
        0.0,
        -0.04188170557115617,
        -0.9983242659452747,
        0.03993222712646449,
        0.0,
        -2.054516553878784,
        1.537710189819336,
        8.033980369567871,
        1.0
      ],
      "name": "Red_piette_NakedSingularity1"
    },
    {
      "mesh": 4,
      "name": "Red_piette_NakedSingularity1_plastic_red_0"
    },
    {
      "mesh": 5,
      "name": "Red_piette_NakedSingularity1_glass_0"
    }
  ],
  "samplers": [
    {
      "magFilter": 9729,
      "minFilter": 9987,
      "wrapS": 10497,
      "wrapT": 10497
    }
  ],
  "scene": 0,
  "scenes": [
    {
      "name": "Sketchfab_Scene",
      "nodes": [
        0
      ]
    }
  ],
  "textures": [
    {
      "sampler": 0,
      "source": 0
    },
    {
      "sampler": 0,
      "source": 1
    },
    {
      "sampler": 0,
      "source": 2
    },
    {
      "sampler": 0,
      "source": 3
    },
    {
      "sampler": 0,
      "source": 4
    }
  ]
}
